<svg width="100%" height="100%" viewBox="0 0 108 104"  fill="#000" xmlns="http://www.w3.org/2000/svg">
<path d="M31.3307 76.2314C31.3307 79.2768 30.654 82.0761 29.3004 84.6293C27.9469 87.1518 26.0705 89.1513 23.6711 90.6278C21.3024 92.1044 18.6262 92.8427 15.6423 92.8427C12.6584 92.8427 9.96676 92.1044 7.56736 90.6278C5.19871 89.1513 3.33764 87.1518 1.98412 84.6293C0.661375 82.0761 0 79.2768 0 76.2314C0 73.186 0.661375 70.4021 1.98412 67.8796C3.33764 65.3264 5.19871 63.3115 7.56736 61.835C9.96676 60.3584 12.6584 59.6201 15.6423 59.6201C18.6262 59.6201 21.3024 60.3584 23.6711 61.835C26.0705 63.3115 27.9469 65.3264 29.3004 67.8796C30.654 70.4021 31.3307 73.186 31.3307 76.2314ZM25.3322 76.2314C25.3322 74.1704 24.9169 72.3093 24.0863 70.6482C23.2558 68.9563 22.1022 67.6181 20.6257 66.6338C19.1491 65.6494 17.488 65.1572 15.6423 65.1572C13.7658 65.1572 12.0893 65.6494 10.6128 66.6338C9.16696 67.5874 8.02878 68.9101 7.19822 70.602C6.39842 72.2939 5.99852 74.1704 5.99852 76.2314C5.99852 78.2924 6.39842 80.1689 7.19822 81.8608C8.02878 83.5527 9.16696 84.8908 10.6128 85.8752C12.0893 86.8288 13.7658 87.3056 15.6423 87.3056C17.488 87.3056 19.1491 86.8134 20.6257 85.829C22.1022 84.8446 23.2558 83.5219 24.0863 81.8608C24.9169 80.1689 25.3322 78.2924 25.3322 76.2314Z" fill="inherit"/>
<path d="M108 76.2314C108 79.2768 107.323 82.0761 105.969 84.6293C104.616 87.1518 102.739 89.1513 100.34 90.6278C97.9714 92.1044 95.2951 92.8427 92.3112 92.8427C89.3274 92.8427 86.6357 92.1044 84.2363 90.6278C81.8677 89.1513 80.0066 87.1518 78.6531 84.6293C77.3303 82.0761 76.6689 79.2768 76.6689 76.2314C76.6689 73.186 77.3303 70.4021 78.6531 67.8796C80.0066 65.3264 81.8677 63.3115 84.2363 61.835C86.6357 60.3584 89.3274 59.6201 92.3112 59.6201C95.2951 59.6201 97.9714 60.3584 100.34 61.835C102.739 63.3115 104.616 65.3264 105.969 67.8796C107.323 70.4021 108 73.186 108 76.2314ZM102.001 76.2314C102.001 74.1704 101.586 72.3093 100.755 70.6482C99.9247 68.9563 98.7712 67.6181 97.2946 66.6338C95.818 65.6494 94.1569 65.1572 92.3112 65.1572C90.4348 65.1572 88.7583 65.6494 87.2817 66.6338C85.8359 67.5874 84.6977 68.9101 83.8672 70.602C83.0674 72.2939 82.6675 74.1704 82.6675 76.2314C82.6675 78.2924 83.0674 80.1689 83.8672 81.8608C84.6977 83.5527 85.8359 84.8908 87.2817 85.8752C88.7583 86.8288 90.4348 87.3056 92.3112 87.3056C94.1569 87.3056 95.818 86.8134 97.2946 85.829C98.7712 84.8446 99.9247 83.5219 100.755 81.8608C101.586 80.1689 102.001 78.2924 102.001 76.2314Z" fill="inherit"/>
<path d="M65.383 78.9288C65.6291 78.7442 65.9367 78.5904 66.3058 78.4674C66.6442 78.3443 66.9672 78.2828 67.2748 78.2828C68.1054 78.2828 68.7975 78.6058 69.3512 79.2518C69.9049 79.867 70.1818 80.5899 70.1818 81.4205C70.1818 81.8204 70.0895 82.2049 69.9049 82.574C69.7204 82.9432 69.4589 83.2508 69.1205 83.4969L55.9238 93.5098L60.1227 97.8933L67.3671 97.8933C68.1977 97.8933 68.8744 98.1702 69.3974 98.7239C69.9203 99.2468 70.1818 99.939 70.1818 100.8C70.1818 101.631 69.9203 102.323 69.3974 102.877C68.8437 103.4 68.1669 103.661 67.3671 103.661L40.6968 103.661C39.897 103.661 39.2356 103.384 38.7126 102.831C38.1589 102.277 37.8821 101.569 37.8821 100.708C37.8821 99.8775 38.1436 99.2007 38.6665 98.6777C39.1894 98.1548 39.8662 97.8933 40.6968 97.8933L53.2475 97.8933L38.7126 83.1277C38.0051 82.4202 37.6514 81.6666 37.6514 80.8668C37.6514 80.1593 37.9436 79.5594 38.5281 79.0672C39.1125 78.575 39.7278 78.3289 40.3738 78.3289C41.0198 78.3289 41.6196 78.6058 42.1733 79.1595L51.771 89.2185L65.383 78.9288Z" fill="inherit"/>
<path fill-rule="evenodd" clip-rule="evenodd" d="M26.8059 0.495059C28.3128 1.01085 29.1162 2.65057 28.6004 4.15747L18.7393 32.9673L28.2708 44.3112L36.7384 49.7501L39.1444 40.9254L32.7668 34.5204C31.9428 33.6929 31.6992 32.4502 32.1498 31.3729L37.108 19.5168C37.7226 18.0474 39.4119 17.3544 40.8813 17.9689C42.3507 18.5834 43.0438 20.2728 42.4293 21.7422L38.2155 31.818L44.4094 38.0386C45.138 38.7703 45.4198 39.8357 45.1482 40.832L41.6392 53.7024L55.7739 72.6345C56.7267 73.9108 56.4645 75.7178 55.1883 76.6707C53.912 77.6236 52.1049 77.3614 51.1521 76.0851L36.4887 56.4447L25.4978 49.3852H9.61417C8.02143 49.3852 6.73027 48.0941 6.73027 46.5013C6.73027 44.9086 8.02143 43.6174 9.61417 43.6174H20.1543L13.2752 35.4302C13.0323 35.1411 12.8485 34.8072 12.7343 34.4473L6.86534 15.9519C6.3836 14.4337 7.22377 12.8125 8.74191 12.3308C10.26 11.849 11.8813 12.6892 12.363 14.2073L15.5868 24.3668L23.1435 2.28964C23.6592 0.78273 25.299 -0.02073 26.8059 0.495059Z" fill="inherit"/>
<path fill-rule="evenodd" clip-rule="evenodd" d="M80.4891 0.495059C78.9821 1.01085 78.1787 2.65057 78.6945 4.15747L88.5556 32.9673L79.0242 44.3112L70.5565 49.7501L68.1505 40.9254L74.5281 34.5204C75.3521 33.6929 75.5957 32.4502 75.1452 31.3729L70.1869 19.5168C69.5724 18.0474 67.883 17.3544 66.4136 17.9689C64.9442 18.5834 64.2511 20.2728 64.8657 21.7422L69.0795 31.818L62.8855 38.0386C62.1569 38.7703 61.8751 39.8357 62.1467 40.832L65.6557 53.7024L51.5211 72.6345C50.5682 73.9108 50.8304 75.7178 52.1067 76.6707C53.3829 77.6236 55.19 77.3614 56.1429 76.0851L70.8063 56.4447L81.7971 49.3852H97.6808C99.2735 49.3852 100.565 48.0941 100.565 46.5013C100.565 44.9086 99.2735 43.6174 97.6808 43.6174H87.1406L94.0197 35.4302C94.2626 35.1411 94.4464 34.8072 94.5606 34.4473L100.43 15.9519C100.911 14.4337 100.071 12.8125 98.553 12.3308C97.0349 11.849 95.4137 12.6892 94.9319 14.2073L91.7081 24.3668L84.1515 2.28964C83.6357 0.78273 81.996 -0.02073 80.4891 0.495059Z" fill="inherit"/>
</svg>
